<?xml version="1.0" encoding="UTF-8"?>
<!-- Created with EazyDraw for Mac ( http://www.eazydraw.com/ ) -->

<svg
    version="1.1"
    xmlns:dc="http://purl.org/dc/elements/1.1/"
    xmlns:cc="http://creativecommons.org/ns#"
    xmlns:rdf="http://www.w3.org/1999/02/22-rdf-syntax-ns#"
    xmlns:svg="http://www.w3.org/2000/svg"
    xmlns:xlink="http://www.w3.org/1999/xlink"
    xmlns="http://www.w3.org/2000/svg"
    width="720.087506826"
    height="665.697561227"
    viewBox="0, 0, 720.087506826, 665.697561227"
    preserveAspectRatio="none"
    id="svg2">
   <defs
       id="defs_CDA93A57">
      <marker
          orient="auto"
          refX="0.0"
          refY="0.0"
          id="E38816D5_end_arrow"
          style="overflow:visible"
          markerUnits="userSpaceOnUse">
         <path
             id="E38816D5_end_arrow_path"
             style="fill:#000000;fill-opacity:1;stroke:#000000;stroke-opacity:1;fill-rule:nonzero;stroke-linecap:square;stroke-linejoin:miter;stroke-width:0.488037109375;stroke-miterlimit:10"
             d="M0,0 L-7.517540966287,2.736161146605 L-7.517540966287,-2.736161146605 z"/>
      </marker>
      <marker
          orient="auto"
          refX="0.0"
          refY="0.0"
          id="A046D0E5_end_arrow"
          style="overflow:visible"
          markerUnits="userSpaceOnUse">
         <path
             id="A046D0E5_end_arrow_path"
             style="fill:#C0C0C0;fill-opacity:1;stroke:#C0C0C0;stroke-opacity:1;fill-rule:nonzero;stroke-linecap:square;stroke-linejoin:miter;stroke-width:0.488037109375;stroke-miterlimit:10"
             d="M0,0 L-7.517540966287,2.736161146605 L-7.517540966287,-2.736161146605 z"/>
      </marker>
      <marker
          orient="auto"
          refX="0.0"
          refY="0.0"
          id="B046D0E5_end_arrow"
          style="overflow:visible"
          markerUnits="userSpaceOnUse">
         <path
             id="B046D0E5_end_arrow_path"
             style="fill:#FF2600;fill-opacity:1;stroke:#FF2600;stroke-opacity:1;fill-rule:nonzero;stroke-linecap:square;stroke-linejoin:miter;stroke-width:0.763061523438;stroke-miterlimit:10"
             d="M0,0 L-7.517540966287,2.736161146605 L-7.517540966287,-2.736161146605 z"/>
      </marker>
   </defs>
   <metadata
       id="metadata7">
      <rdf:RDF>
         <cc:Work
             rdf:about="">
            <dc:format>image/svg+xml</dc:format>
            <dc:type rdf:resource="http://purl.org/dc/dcmitype/StillImage"/>
            <dc:title></dc:title>
         </cc:Work>
      </rdf:RDF>
   </metadata>
   <g
       id="layer_Paper"
       style="fill:#000000;fill-opacity:1;stroke:#000000;stroke-opacity:1;fill-rule:nonzero;stroke-linecap:square;stroke-linejoin:miter;stroke-width:1;stroke-miterlimit:10">
      <g
          id="4DEB8857">
         <rect
             style="fill:none"
             id="236297C5"
             x="24.5084789878"
             y="24.5084789878"
             width="115.701818767"
             height="46.2807275069"/>
         <rect
             style="fill:none"
             id="7055F7C5"
             x="163.350661509"
             y="24.5084789878"
             width="115.701818767"
             height="46.2807275069"/>
         <rect
             style="fill:none"
             id="335D08C5"
             x="302.192844029"
             y="24.5084789878"
             width="115.701818767"
             height="46.2807275069"/>
         <rect
             style="fill:none"
             id="77C918C5"
             x="441.03502655"
             y="24.5084789878"
             width="115.701818767"
             height="46.2807275069"/>
         <rect
             style="fill:none"
             id="45E328C5"
             x="579.877209071"
             y="24.5084789878"
             width="115.701818767"
             height="46.2807275069"/>
         <rect
             style="fill:none"
             id="0F6368C5"
             x="24.5084789878"
             y="209.631389015"
             width="46.2807275069"
             height="46.2807275069"/>
         <rect
             style="fill:none"
             id="7AB2F8C5"
             x="93.9295702482"
             y="209.631389015"
             width="46.2807275069"
             height="46.2807275069"/>
         <rect
             style="fill:none"
             id="9DAFF8C5"
             x="163.350661509"
             y="209.631389015"
             width="46.2807275069"
             height="46.2807275069"/>
         <rect
             style="fill:none"
             id="D18309C5"
             x="232.771752769"
             y="209.631389015"
             width="46.2807275069"
             height="46.2807275069"/>
         <rect
             style="fill:none"
             id="E86509C5"
             x="302.192844029"
             y="209.631389015"
             width="46.2807275069"
             height="46.2807275069"/>
         <rect
             style="fill:none"
             id="DA6099C5"
             x="371.61393529"
             y="209.631389015"
             width="46.2807275069"
             height="46.2807275069"/>
         <rect
             style="fill:none"
             id="7F0599C5"
             x="441.03502655"
             y="209.631389015"
             width="46.2807275069"
             height="46.2807275069"/>
         <polygon
             style="fill:none;stroke:#D6D6D6;stroke-width:2.63623046875"
             id="98A4EE07"
             points="1.368115234375,1.368115234375 718.719391592,1.368115234375 718.719391592,93.9295702482 1.368115234375,93.9295702482"/>
         <rect
             style="fill:none;stroke:#D6D6D6;stroke-width:2.640625"
             id="72698AC5"
             x="1.368115234375"
             y="186.491025262"
             width="509.088002576"
             height="92.5614550138"/>
         <polygon
             style="fill:none"
             id="D9E68DC5"
             points="156.595204617,117.069934002 189.363555184,117.069934002 189.363555184,130.396099868 202.689721051,130.396099868 202.689721051,148.792826858 189.168371109,148.792826858 189.168371109,162.314176799 156.577633749,162.314176799 156.577633749,162.145536594 156.408993544,162.145536594 156.408993544,117.256145075 156.595204617,117.256145075 156.595204617,117.069934002"/>
         <text
             id="38FFF5E6"
             style="stroke:none"
             font-family="Avenir"
             font-size="12"
             font-weight="normal"
             font-style="normal"
             transform="matrix(1.285575764081,0,0,1.285575764081,-44.6666178404,-37.6080593444)">
            <tspan x="162.762993544" y="143.6920554">start</tspan>
         </text>
         <polygon
             style="fill:none"
             id="607042D5"
             points="222.545461895,117.069934002 255.313812462,117.069934002 255.313812462,130.396099868 268.639978329,130.396099868 268.639978329,148.792826858 255.118628387,148.792826858 255.118628387,162.314176799 222.527891027,162.314176799 222.527891027,162.145536594 222.359250822,162.145536594 222.359250822,117.256145075 222.545461895,117.256145075 222.545461895,117.069934002"/>
         <text
             id="A91956E6"
             style="stroke:none"
             font-family="Avenir"
             font-size="12"
             font-weight="normal"
             font-style="normal"
             transform="matrix(1.285575764081,0,0,1.285575764081,-63.5004129538,-37.6080593444)">
            <tspan x="230.021250822" y="143.6920554">end</tspan>
         </text>
         <path
             style="fill:none;stroke-width:1.9521484375;marker-end:url(#E38816D5_end_arrow)"
             id="E38816D5"
             d="M174.919072609,223.158852696 C174.919072609,223.158852696 174.919072609,223.158852696 174.919072609,223.158852696 C176.970931751,207.08343608 167.115279481,202.971158513 164.45853993,192.50741786 C162.066722807,183.087091339 164.304156156,173.069580292 164.226964268,163.350661509"/>
         <path
             style="fill:none;stroke-width:1.9521484375;marker-end:url(#E38816D5_end_arrow)"
             id="E29FA6D5"
             d="M186.491025262,222.501293229 C186.491025262,222.501293229 186.491025262,222.501293231 186.491025262,222.50129323 C188.527295235,208.564995249 190.691450753,194.264586688 200.911873261,190.787361178 C216.054172654,185.635598647 231.136005783,198.716876142 232.503994628,163.350661509"/>
         <path
             style="fill:none;stroke-width:1.9521484375;marker-end:url(#E38816D5_end_arrow)"
             id="207DFDD5"
             d="M241.515522398,125.023859419 C241.515522398,125.023859419 241.515522398,125.023859419 241.515522398,125.023859419 C239.212025386,106.591878465 234.661235459,88.0853658677 245.356953956,86.6191669266 C268.719570139,83.4165542998 316.545848361,135.200248843 313.64145201,71.4140911954"/>
         <rect
             style="fill:none"
             id="5046D0E5"
             x="133.338582905"
             y="325.397202579"
             width="169.900179324"
             height="67.9600717296"/>
         <rect
             style="fill:none"
             id="6046D0E5"
             x="337.218798094"
             y="325.397202579"
             width="169.900179324"
             height="67.9600717296"/>
         <rect
             style="fill:none"
             id="7046D0E5"
             x="133.338582905"
             y="597.237489498"
             width="67.9600717296"
             height="67.9600717296"/>
         <polygon
             style="fill:none;stroke:#C0C0C0"
             id="8046D0E5"
             points="133.612021085,461.317346039 181.73009474,461.317346039 181.73009474,480.885905933 201.298654635,480.885905933 201.298654635,507.900236804 181.443480324,507.900236804 181.443480324,527.755411115 133.586219472,527.755411115 133.586219472,527.507774548 133.338582905,527.507774548 133.338582905,461.590784218 133.612021085,461.590784218 133.612021085,461.317346039"/>
         <polygon
             style="fill:none;stroke:#FF2600;stroke-width:3.05224609375"
             id="9046D0E5"
             points="235.55212868,461.317346039 283.670202335,461.317346039 283.670202335,480.885905933 303.238762229,480.885905933 303.238762229,507.900236804 283.383587918,507.900236804 283.383587918,527.755411115 235.526327066,527.755411115 235.526327066,527.507774548 235.2786905,527.507774548 235.2786905,461.590784218 235.55212868,461.590784218 235.55212868,461.317346039"/>
         <path
             style="fill:none;stroke:#C0C0C0;stroke-width:1.9521484375;marker-end:url(#A046D0E5_end_arrow)"
             id="A046D0E5"
             d="M160.040366101,614.482559967 C160.040366101,614.482559967 160.040366101,614.482559967 160.040366101,614.482559967 C163.053380416,590.87691405 148.58103153,584.8383167 144.679791851,569.473031762 C141.167572576,555.639928857 144.453089875,540.929901467 144.339738888,526.65833632"/>
         <path
             style="fill:none;stroke:#FF2600;stroke-width:3.05224609375;marker-end:url(#B046D0E5_end_arrow)"
             id="B046D0E5"
             d="M182.6808595,612.817891045 C182.6808595,612.817891045 182.6808595,612.817891047 182.6808595,612.817891047 C185.670982189,592.35339402 188.848896024,571.354225599 203.856884969,566.248158608 C226.092312291,558.683148938 248.238949055,577.892107067 250.247746777,525.959248341"/>
         <path
             style="fill:none;stroke:#FF2600;stroke-width:3.05224609375;marker-end:url(#B046D0E5_end_arrow)"
             id="D046D0E5"
             d="M260.944561749,479.859671892 C260.944561749,479.859671892 260.944561749,479.859671892 260.944561749,479.859671892 C257.562034492,452.793572993 250.879511842,425.618029493 266.585440322,423.465016985 C300.891838625,418.762200163 358.874966065,488.788719509 354.610059377,395.123125155"/>
         <rect
             style="fill:none;stroke-width:1.9521484375"
             id="785BF7E6"
             x="192.809350872"
             y="334.678194859"
             width="92.7099603566"
             height="13.6067845492"/>
         <rect
             style="fill:none;stroke-width:1.9521484375"
             id="9CDE48E6"
             x="193.762148935"
             y="359.14769032"
             width="104.361613661"
             height="13.6438918533"/>
         <rect
             style="fill:none;stroke-width:1.9521484375"
             id="5DEEB8E6"
             x="404.45437579"
             y="333.541331328"
             width="92.7099603565"
             height="13.6438918533"/>
         <rect
             style="fill:none;stroke-width:1.9521484375"
             id="C546F8E6"
             x="405.343021342"
             y="357.547890178"
             width="67.8017683808"
             height="13.6438918533"/>
         <path
             style="fill:none;stroke:#FF2600;stroke-width:3.05224609375;marker-end:url(#B046D0E5_end_arrow)"
             id="BB504AE6"
             d="M231.816427483,367.958700394 C231.816427483,367.958700394 231.816427484,367.958700394 231.816427484,367.958700394 C232.055680384,388.605833748 252.878567587,444.212958142 214.236380262,448.902958124 C172.001888492,454.028955883 183.015909426,559.349873515 171.494420978,598.327289662"/>
         <path
             style="fill:none;stroke-width:1.9521484375;stroke-dasharray:4,4;marker-end:url(#E38816D5_end_arrow)"
             id="EA71EFE6"
             d="M451.485879239,341.500740271 C451.485879239,341.500740271 451.48587924,341.500740271 451.48587924,341.500740271 C457.337592528,416.287430215 392.071645022,496.760261253 361.400729063,526.145997546 C337.069028941,549.458145259 253.23157093,606.271607125 205.307942701,607.626855391"/>
         <text
             id="FE34C0F6"
             style="stroke:none"
             font-family="Avenir"
             font-size="11"
             font-weight="normal"
             font-style="normal"
             transform="matrix(1.285575764081,0,0,1.285575764081,-37.1462764316,-94.4281994281)">
            <tspan x="135.075031231" y="341.65900999">inports</tspan>
         </text>
         <text
             id="ACECA1F6"
             style="stroke:none"
             font-family="Avenir"
             font-size="11"
             font-weight="normal"
             font-style="normal"
             transform="matrix(1.285575764081,0,0,1.285575764081,-37.138216654,-101.479675971)">
            <tspan x="135.046808326" y="366.351149275">outports</tspan>
         </text>
         <text
             id="229EF1F6"
             style="stroke:none"
             font-family="Avenir"
             font-size="11"
             font-weight="normal"
             font-style="normal"
             transform="matrix(1.285575764081,0,0,1.285575764081,-95.7655101053,-100.784784474)">
            <tspan x="340.34186773" y="363.917849309">outports</tspan>
         </text>
         <text
             id="5D5F12F6"
             style="stroke:none"
             font-family="Avenir"
             font-size="11"
             font-weight="normal"
             font-style="normal"
             transform="matrix(1.285575764081,0,0,1.285575764081,-95.6318362093,-94.5943098507)">
            <tspan x="339.873782154" y="342.240678477">inports</tspan>
         </text>
         <text
             id="20AB4EF6"
             style="stroke:none"
             font-family="Avenir"
             font-size="11"
             font-weight="normal"
             font-style="normal"
             transform="matrix(1.285575764081,0,0,1.285575764081,-0.182817030509,-20.9932165217)">
            <tspan x="5.640169977651" y="84.5118982846">blocklist</tspan>
         </text>
         <text
             id="46A0BEF6"
             style="stroke:none"
             font-family="Avenir"
             font-size="11"
             font-weight="normal"
             font-style="normal"
             transform="matrix(1.285575764081,0,0,1.285575764081,-0.201911835146,-73.6983263911)">
            <tspan x="5.707034211381" y="269.069260983">wirelist</tspan>
         </text>
         <line
             style="fill:none;stroke:#0433FF;stroke-width:1.205078125"
             id="F2191407"
             x1="351.952752489"
             y1="63.421483138"
             x2="388.983395066"
             y2="111.081176761"/>
         <g id="2DC96507_textGroup" transform="matrix(1.285575764081,0,0,1.285575764081,-94.8839796399,-37.7183807869)">
            <path
                style="fill:none;stroke:#0433FF"
                id="2DC96507_textRect"
                d="M332.255014515,132.078367743 L433.426652262,132.078367743 L433.426652262,152.858458004 L332.255014515,152.858458004 z"/>
            <text
                id="2DC96507"
                style="fill:#0433FF;stroke:none"
                font-family="Avenir"
                font-size="11"
                font-weight="normal"
                font-style="normal">
               <tspan x="337.783578968" y="143.606932197">Plug instance</tspan>
            </text>
         </g>
         <g id="103AE607_textGroup" transform="matrix(1.285575764081,0,0,1.285575764081,-110.663329103,-45.8348504739)">
            <path
                style="fill:none;stroke:#0433FF"
                id="103AE607_textRect"
                d="M387.509526445,160.499791085 L488.574754486,160.499791085 L488.574754486,181.279881346 L387.509526445,181.279881346 z"/>
            <text
                id="103AE607"
                style="fill:#0433FF;stroke:none"
                font-family="Avenir"
                font-size="11"
                font-weight="normal"
                font-style="normal">
               <tspan x="393.038090898" y="172.028355538">Wire instance</tspan>
            </text>
         </g>
         <g id="A923F607_textGroup" transform="matrix(1.285575764081,0,0,1.285575764081,-111.276513184,-29.4101162139)">
            <path
                style="fill:none;stroke:#0433FF"
                id="A923F607_textRect"
                d="M389.65671174,102.985336688 L494.205999507,102.985336688 L494.205999507,123.765426949 L389.65671174,123.765426949 z"/>
            <text
                id="A923F607"
                style="fill:#0433FF;stroke:none"
                font-family="Avenir"
                font-size="11"
                font-weight="normal"
                font-style="normal">
               <tspan x="395.185276193" y="114.513901141">Block instance</tspan>
            </text>
         </g>
         <line
             style="fill:none;stroke:#0433FF;stroke-width:1.205078125"
             id="AE96E807"
             x1="276.105291962"
             y1="142.946621758"
             x2="332.06523276"
             y2="140.824547809"/>
         <line
             style="fill:none;stroke:#0433FF;stroke-width:1.205078125"
             id="D41CE807"
             x1="386.549770787"
             y1="173.142238074"
             x2="331.684491682"
             y2="214.435709849"/>
         <path
             style="fill:none;stroke-width:1.9521484375;marker-end:url(#E38816D5_end_arrow)"
             id="DA7BB017"
             d="M175.431222956,124.638508132 C175.431222956,124.638508132 175.431222956,124.638508132 175.431222956,124.638508132 C175.886709649,112.035967597 164.970061435,105.5194879 173.225881304,97.6218359691 C177.799104812,93.2470157773 174.530018942,88.1475986321 174.309005237,71.6110111535"/>
         <path
             style="fill:none;stroke:#C0C0C0;stroke-width:1.9521484375;marker-end:url(#A046D0E5_end_arrow)"
             id="9078D617"
             d="M155.493911397,471.115243689 C155.493911397,471.115243689 155.493911397,471.115243689 155.493911397,471.115243689 C156.100336063,452.56066619 141.566157928,442.966527038 152.557769481,431.338903671 C158.64645566,424.89790552 154.294068788,417.390091491 153.999816149,393.043461295"/>
         <g id="AD743A17_textGroup" transform="matrix(1.285575764081,0,0,1.285575764081,-1.116567871545,-98.4721914034)">
            <path
                style="fill:none;stroke:#0433FF"
                id="AD743A17_textRect"
                d="M3.909883162316,344.819847442 L116.453629159,344.819847442 L116.453629159,365.599937703 L3.909883162316,365.599937703 z"/>
            <text
                id="AD743A17"
                style="fill:#0433FF;stroke:none"
                font-family="Avenir"
                font-size="11"
                font-weight="normal"
                font-style="normal">
               <tspan x="9.438447615441" y="356.348411895">Block instance</tspan>
            </text>
         </g>
         <g id="FF236D17_textGroup" transform="matrix(1.285575764081,0,0,1.285575764081,-4.263937160815,-175.957341144)">
            <path
                style="fill:none;stroke:#0433FF"
                id="FF236D17_textRect"
                d="M14.9310190048,616.149419088 L115.996247046,616.149419088 L115.996247046,636.929509349 L14.9310190048,636.929509349 z"/>
            <text
                id="FF236D17"
                style="fill:#0433FF;stroke:none"
                font-family="Avenir"
                font-size="11"
                font-weight="normal"
                font-style="normal">
               <tspan x="20.459583458" y="627.677983542">Wire instance</tspan>
            </text>
         </g>
         <g id="7ADE9D17_textGroup" transform="matrix(1.285575764081,0,0,1.285575764081,-4.638277925392,-138.103992962)">
            <path
                style="fill:none;stroke:#0433FF"
                id="7ADE9D17_textRect"
                d="M16.2418472041,483.598436325 L117.413484951,483.598436325 L117.413484951,504.378526586 L16.2418472041,504.378526586 z"/>
            <text
                id="7ADE9D17"
                style="fill:#0433FF;stroke:none"
                font-family="Avenir"
                font-size="11"
                font-weight="normal"
                font-style="normal">
               <tspan x="21.7704116572" y="495.127000778">Plug instance</tspan>
            </text>
         </g>
      </g>
   </g>
</svg>
